<?xml version="1.0" ?><svg height="24" id="svg8" version="1.1" viewBox="0 0 24 24" width="24" xmlns="http://www.w3.org/2000/svg" xmlns:cc="http://creativecommons.org/ns#" xmlns:dc="http://purl.org/dc/elements/1.1/" xmlns:rdf="http://www.w3.org/1999/02/22-rdf-syntax-ns#" xmlns:svg="http://www.w3.org/2000/svg"><defs id="defs2"/><g id="g2055" style="display:inline" transform="translate(0,-290.65)"><path d="m 12,292.65 c -2.7527,0 -5,2.2473 -5,5 v 3 c -1.8835539,0 -3,1.45947 -3,2.83203 v 6.33399 C 4,311.36838 5.28161,312.65 6.83398,312.65 H 17.16602 C 18.71839,312.65 20,311.36838 20,309.81602 v -6.33399 C 20,301.92966 18.71839,300.65 17.16602,300.65 H 9 v -3 c 0,-1.6793 1.3207,-3 3,-3 1.6793,0 3,1.3207 3,3 0,0.55228 0.44772,1 1,1 0.55228,0 1,-0.44772 1,-1 0,-2.7527 -2.2473,-5 -5,-5 z m -5.16602,10 h 10.33204 c 0.47896,0 0.83398,0.35306 0.83398,0.83203 v 6.33399 c 0,0.47895 -0.35502,0.83398 -0.83398,0.83398 H 6.83398 C 6.35502,310.65 6,310.29497 6,309.81602 v -6.33399 C 6,303.00306 6.35502,302.65 6.83398,302.65 Z" id="path2045" style="color:#000000;font-style:normal;font-variant:normal;font-weight:normal;font-stretch:normal;font-size:medium;line-height:normal;font-family:sans-serif;font-variant-ligatures:normal;font-variant-position:normal;font-variant-caps:normal;font-variant-numeric:normal;font-variant-alternates:normal;font-variant-east-asian:normal;font-feature-settings:normal;font-variation-settings:normal;text-indent:0;text-align:start;text-decoration:none;text-decoration-line:none;text-decoration-style:solid;text-decoration-color:#000000;letter-spacing:normal;word-spacing:normal;text-transform:none;writing-mode:lr-tb;direction:ltr;text-orientation:mixed;dominant-baseline:auto;baseline-shift:baseline;text-anchor:start;white-space:normal;shape-padding:0;shape-margin:0;inline-size:0;clip-rule:nonzero;display:inline;overflow:visible;visibility:visible;opacity:1;isolation:auto;mix-blend-mode:normal;color-interpolation:sRGB;color-interpolation-filters:linearRGB;solid-color:#000000;solid-opacity:1;vector-effect:none;fill:#000000;fill-opacity:1;fill-rule:nonzero;stroke:none;stroke-linecap:round;stroke-linejoin:round;stroke-miterlimit:4;stroke-dasharray:none;stroke-dashoffset:0;stroke-opacity:1;color-rendering:auto;image-rendering:auto;shape-rendering:auto;text-rendering:auto;enable-background:accumulate;stop-color:#000000;stop-opacity:1"/></g></svg>